<svg xmlns="http://www.w3.org/2000/svg" aria-hidden="true"
  style="position:absolute;width:0;height:0;overflow:hidden">
  <defs>
    <symbol id="icon-logo" viewBox="0 0 32 32">
      <path
        d="m3.413 13.436 6.748 15.457 1.471 1.02 1.725.549 2.334.628 2.74-1.177 1.826-1.02-6.9-15.457H3.413zM27.628 18.606 20.88 3.113l-1.471-1.022-1.725-.551L15.35.911l-2.74 1.18-1.826 1.022 6.9 15.493h9.944z" />
      <path
        d="m20.618 28.691 10.476-15.142-10.476-.112-7.573 15.254c-.532 1.561-2.195.65-2.961 0 3.271 5.993 8.385 2.497 10.533 0zM10.465 3.309-.011 18.451l10.476.112 7.573-15.254c.532-1.561 2.195-.65 2.961 0-3.271-5.993-8.385-2.497-10.533 0z" />
    </symbol>
    <symbol id="icon-menu-close" viewBox="0 0 32 32">
      <path d="M24 8l-16 16"></path>
      <path d="M8 8l16 16"></path>
    </symbol>
    <symbol id="icon-youtube" viewBox="0 0 32 32">
      <path
        d="M24.24 6c-1.36-.08-4.16-.16-8.4-.16h-.56c-4.08 0-6.8.08-8.16.24-1.84.16-3.12.64-3.84 1.28-.64.56-1.12 1.6-1.28 2.96-.08.88-.16 2.72-.16 5.52v.4c0 2.64.08 4.48.24 5.36.24 1.28.64 2.24 1.44 2.8.8.64 2.16 1.04 4.08 1.2 1.36.08 4.16.16 8.4.16h.56c4.08 0 6.8-.08 8.16-.24 1.84-.16 3.12-.64 3.84-1.28.64-.56 1.12-1.6 1.28-2.96.08-.88.16-2.72.16-5.52v-.4c0-2.64-.08-4.48-.24-5.36-.24-1.28-.64-2.24-1.44-2.8-.8-.64-2.16-1.04-4.08-1.2zm-3.12 9.84-8.8 5.28V10.56l8.8 5.28z" />
    </symbol>
    <symbol id="icon-instagram" viewBox="0 0 32 32">
      <path
        d="M3.282 21.244a9.264 9.264 0 0 0 .596 3.145 6.547 6.547 0 0 0 3.743 3.737 9.42 9.42 0 0 0 3.108.596c1.368.061 1.801.078 5.273.078s3.916 0 5.274-.078a9.413 9.413 0 0 0 3.106-.596 6.541 6.541 0 0 0 3.743-3.737 9.288 9.288 0 0 0 .596-3.101c.061-1.367.08-1.8.08-5.265s0-3.909-.08-5.265a9.335 9.335 0 0 0-.596-3.104 6.548 6.548 0 0 0-3.744-3.735 9.37 9.37 0 0 0-3.106-.639c-1.369-.061-1.803-.08-5.274-.08s-3.916 0-5.274.08a9.362 9.362 0 0 0-3.108.595 6.555 6.555 0 0 0-3.743 3.737 9.346 9.346 0 0 0-.596 3.104c-.061 1.365-.08 1.798-.08 5.265.003 3.466.003 3.906.083 5.264zM16.01 9.469c3.631 0 6.572 2.936 6.572 6.561s-2.941 6.561-6.572 6.561c-3.628 0-6.572-2.936-6.572-6.561s2.944-6.561 6.572-6.561zM9.176 21.304a1.53 1.53 0 1 1 0 3.06 1.53 1.53 0 1 1 0-3.06z" />
      <path d="M16.008 12.024a4.004 4.004 0 1 0 0 8.009 4.004 4.004 0 0 0 0-8.009z" />
    </symbol>
    <symbol id="icon-facebook" viewBox="0 0 32 32">
      <path
        d="M19.52 4.64h.96v3.6h-1.2c-.48 0-.96 0-1.2.24s-.24.48-.24 1.04v1.28h2.64v3.04h-2.64v13.2h-4.08V13.76H11.6v-3.04h2.16V9.68c0-1.76.24-3.04.72-3.6.72-1.04 2.16-1.52 4.32-1.52.24.08.48.08.72.08z" />
    </symbol>
    <symbol id="icon-left" viewBox="0 0 32 32">
      <path stroke-linejoin="miter" stroke-linecap="butt" stroke-miterlimit="4" stroke-width="0.9412" d="M8.471 0.471h15.059c4.418 0 8 3.582 8 8v15.059c0 4.418-3.582 8-8 8h-15.059c-4.418 0-8-3.582-8-8v-15.059c0-4.418 3.582-8 8-8z"></path>
      <path stroke-linejoin="round" stroke-linecap="round" stroke-miterlimit="4" stroke-width="0.9412" d="M18.118 20.235l-4.235-4.235 4.235-4.235"></path>
    </symbol>
    <symbol id="icon-right" viewBox="0 0 32 32">
      <path stroke-linejoin="miter" stroke-linecap="butt" stroke-miterlimit="4" stroke-width="0.9412" d="M8.471 0.471h15.059c4.418 0 8 3.582 8 8v15.059c0 4.418-3.582 8-8 8h-15.059c-4.418 0-8-3.582-8-8v-15.059c0-4.418 3.582-8 8-8z"></path>
      <path stroke-linejoin="round" stroke-linecap="round" stroke-miterlimit="4" stroke-width="0.9412" d="M13.882 20.235l4.235-4.235-4.235-4.235"></path>
    </symbol>
    <symbol id="icon-chevron-right" viewBox="0 0 32 32">
      <path d="M12 24l8-8-8-8"></path>
    </symbol>
    <symbol id="icon-chevron-left" viewBox="0 0 32 32">
      <path d="M12 24l8-8-8-8"></path>
    </symbol>
    <symbol id="icon-burger-menu" viewBox="0 0 32 32">
      <path d="M2.667 7.993c0-0.733 0.595-1.327 1.327-1.327h10.68c0.352 0 0.689 0.14 0.938 0.389s0.389 0.586 0.389 0.938c0 0.352-0.14 0.689-0.389 0.938s-0.586 0.389-0.938 0.389h-10.68c-0.352 0-0.689-0.14-0.938-0.389s-0.389-0.586-0.389-0.938zM2.667 16c0-0.733 0.595-1.327 1.327-1.327h24.013c0.352 0 0.689 0.14 0.938 0.389s0.389 0.586 0.389 0.938c0 0.352-0.14 0.689-0.389 0.938s-0.586 0.389-0.938 0.389h-24.013c-0.352 0-0.689-0.14-0.938-0.389s-0.389-0.586-0.389-0.938zM3.993 22.68c-0.352 0-0.689 0.14-0.938 0.389s-0.389 0.586-0.389 0.938c0 0.352 0.14 0.689 0.389 0.938s0.586 0.389 0.938 0.389h16.013c0.352 0 0.689-0.14 0.938-0.389s0.389-0.586 0.389-0.938c0-0.352-0.14-0.689-0.389-0.938s-0.586-0.389-0.938-0.389h-16.013z"></path>
    </symbol>
  </defs>
</svg>